<svg xmlns="http://www.w3.org/2000/svg" xmlns:xlink="http://www.w3.org/1999/xlink" width="1080" zoomAndPan="magnify" viewBox="0 0 810 809.999993" height="1080" preserveAspectRatio="xMidYMid meet" version="1.0"><rect x="-81" width="972" fill="#ffffff" y="-80.999999" height="971.999992" fill-opacity="1"/><rect x="-81" width="972" fill="#ffffff" y="-80.999999" height="971.999992" fill-opacity="1"/><path fill="#4f4f4f" d="M 166.179688 257.773438 C 64.449219 340.628906 67.152344 493.339844 139.664062 595.148438 C 212.71875 698.039062 344.210938 739.195312 461.097656 686.667969 C 568.78125 637.929688 635.339844 528.539062 643.457031 412.109375 C 650.492188 306.511719 608.285156 193.332031 514.128906 138.636719 C 397.242188 70.945312 223.539062 105.0625 138.582031 207.953125 C 119.644531 230.699219 152.109375 258.855469 172.675781 238.277344 C 246.808594 165.171875 356.65625 127.265625 457.847656 163.546875 C 543.347656 193.875 588.804688 279.976562 595.296875 366.621094 C 602.332031 462.472656 564.453125 559.949219 486.53125 618.433594 C 403.738281 680.167969 289.558594 681.792969 211.09375 611.9375 C 112.066406 523.664062 88.257812 369.328125 173.214844 264.273438 C 177.542969 258.855469 171.050781 253.984375 166.179688 257.773438 Z M 166.179688 257.773438 " fill-opacity="1" fill-rule="nonzero"/><path fill="#42da00" d="M 699.734375 92.066406 C 549.300781 186.292969 422.675781 328.171875 326.355469 478.175781 C 312.285156 460.847656 298.757812 443.519531 284.148438 426.730469 C 266.289062 405.613281 247.890625 379.078125 218.128906 378.535156 C 214.882812 378.535156 212.175781 380.703125 211.636719 383.949219 C 202.976562 412.109375 225.703125 438.105469 240.316406 459.765625 C 260.335938 489.007812 281.980469 517.710938 303.085938 546.410156 C 317.15625 565.363281 343.671875 563.738281 356.117188 544.785156 C 407.523438 465.722656 463.800781 390.449219 527.113281 320.050781 C 589.34375 250.191406 659.148438 187.917969 726.792969 124.015625 C 745.191406 106.6875 719.214844 79.609375 699.734375 92.066406 Z M 699.734375 92.066406 " fill-opacity="1" fill-rule="nonzero"/></svg>